<?xml version="1.0" encoding="UTF-8" standalone="no"?>
<svg
   xmlns:dc="http://purl.org/dc/elements/1.1/"
   xmlns:cc="http://creativecommons.org/ns#"
   xmlns:rdf="http://www.w3.org/1999/02/22-rdf-syntax-ns#"
   xmlns:svg="http://www.w3.org/2000/svg"
   xmlns="http://www.w3.org/2000/svg"
   xmlns:sodipodi="http://sodipodi.sourceforge.net/DTD/sodipodi-0.dtd"
   xmlns:inkscape="http://www.inkscape.org/namespaces/inkscape"
   viewBox="0 0 20 20"
   width="20"
   height="20"
   version="1.1"
   id="svg917"
   sodipodi:docname="github.svg"
   inkscape:version="0.92.4 (5da689c313, 2019-01-14)"
   style="fill:#000000">
  <metadata
     id="metadata923">
    <rdf:RDF>
      <cc:Work
         rdf:about="">
        <dc:format>image/svg+xml</dc:format>
        <dc:type
           rdf:resource="http://purl.org/dc/dcmitype/StillImage" />
        <dc:title></dc:title>
      </cc:Work>
    </rdf:RDF>
  </metadata>
  <defs
     id="defs921" />
  <sodipodi:namedview
     pagecolor="#ffffff"
     bordercolor="#666666"
     borderopacity="1"
     objecttolerance="10"
     gridtolerance="10"
     guidetolerance="10"
     inkscape:pageopacity="0"
     inkscape:pageshadow="2"
     inkscape:window-width="1366"
     inkscape:window-height="705"
     id="namedview919"
     showgrid="false"
     inkscape:zoom="4.72"
     inkscape:cx="-10.275424"
     inkscape:cy="25"
     inkscape:window-x="-8"
     inkscape:window-y="-8"
     inkscape:window-maximized="1"
     inkscape:current-layer="svg917" />
  <path
     d="M 6.865652,19.999998 C 7.1747832,19.8635 7.3913048,19.548129 7.3913048,19.181013 v -2.408778 c 0,-0.08788 0.00696,-0.17932 0.017832,-0.272103 -0.00608,0.0018 -0.011736,0.0031 -0.017832,0.0045 0,0 -1.304348,0 -1.5652179,0 -0.6521738,0 -1.2173915,-0.267643 -1.4782606,-0.802927 C 4.0434783,15.121775 3.9130435,14.140421 3.1304348,13.605137 3,13.515923 3.0869565,13.382101 3.3478261,13.382101 c 0.2608696,0.04461 0.8260869,0.401464 1.1739133,0.892141 0.391304,0.490677 0.7826086,0.89214 1.4782606,0.89214 1.0813048,0 1.6608696,-0.05576 2.0095648,-0.247569 0.4060872,-0.619591 0.9682616,-1.090641 1.555652,-1.090641 v -0.01115 C 7.1008696,13.735835 5.5265217,12.895439 4.7934783,11.597821 3.2,11.616556 1.8126087,11.77848 1.0208695,11.913193 0.99565216,11.767328 0.97391304,11.620571 0.95521736,11.472921 1.7365217,11.340885 3.0608695,11.184314 4.5834783,11.154428 c -0.048695,-0.123116 -0.09087,-0.249354 -0.1265217,-0.378714 -1.5265218,-0.0794 -2.8439131,-0.0174 -3.55956532,0.04327 -0.008695,-0.148095 -0.0204344,-0.295745 -0.0221736,-0.445624 0.71695652,-0.06022 1.99869572,-0.120439 3.48608692,-0.04951 -0.034349,-0.223035 -0.05652,-0.4509763 -0.05652,-0.6882859 0,-0.7583192 0.2608698,-1.5612448 0.7391304,-2.2303503 -0.2173916,-0.758325 -0.521739,-2.3641776 0.086956,-2.9440684 1.1739134,0 1.9999998,0.5798908 2.3913038,0.9367468 C 8.2608696,5.0851979 9.0869568,4.9067699 10,4.9067699 c 0.913043,0 1.73913,0.178428 2.434783,0.4906772 0.391304,-0.356856 1.217391,-0.9367475 2.391304,-0.9367475 0.652174,0.6244983 0.304348,2.2303509 0.08696,2.9440629 0.478262,0.6691048 0.739131,1.4274248 0.695652,2.2303512 0,0.2158976 -0.01957,0.4242113 -0.04782,0.6285113 1.521304,-0.07673 2.837826,-0.01517 3.566956,0.0455 -8.8e-4,0.150325 -0.01435,0.297083 -0.02217,0.445624 -0.726521,-0.06156 -2.076087,-0.1249 -3.634347,-0.0397 -0.0387,0.149879 -0.08565,0.295745 -0.141305,0.437149 1.541739,0.02052 2.897827,0.173522 3.716522,0.307342 -0.0187,0.148096 -0.04043,0.294852 -0.06566,0.440272 -0.831305,-0.136497 -2.248261,-0.296191 -3.860435,-0.30422 -0.723913,1.28379 -2.269565,2.121063 -4.685652,2.218752 v 0.01383 c 1.130434,0 2.173912,1.739674 2.173912,2.944064 v 2.408778 c 0,0.367116 0.216522,0.682487 0.525653,0.818985 C 17.117391,18.647513 20,14.793468 20,10.259611 20,4.6025499 15.514348,-1.5e-6 10,-1.5e-6 c -5.514348,0 -10,4.6025514 -10,10.2596125 0,4.533857 2.8826087,8.387902 6.865652,9.740387 z"
     id="path915"
     style="fill:#ffffff;stroke-width:0.44039023"
     inkscape:connector-curvature="0" />
</svg>
