<?xml version="1.0" encoding="UTF-8" standalone="no"?>
<!-- Created with Inkscape (http://www.inkscape.org/) -->

<svg
   xmlns:dc="http://purl.org/dc/elements/1.1/"
   xmlns:cc="http://creativecommons.org/ns#"
   xmlns:rdf="http://www.w3.org/1999/02/22-rdf-syntax-ns#"
   xmlns:svg="http://www.w3.org/2000/svg"
   xmlns="http://www.w3.org/2000/svg"
   xmlns:sodipodi="http://sodipodi.sourceforge.net/DTD/sodipodi-0.dtd"
   xmlns:inkscape="http://www.inkscape.org/namespaces/inkscape"
   width="26"
   height="21"
   viewBox="0 0 6.8791664 5.5562503"
   version="1.1"
   id="svg920"
   inkscape:version="0.92.4 (5da689c313, 2019-01-14)"
   sodipodi:docname="carts.svg">
  <defs
     id="defs914" />
  <sodipodi:namedview
     id="base"
     pagecolor="#ffffff"
     bordercolor="#666666"
     borderopacity="1.0"
     inkscape:pageopacity="0.0"
     inkscape:pageshadow="2"
     inkscape:zoom="7.919596"
     inkscape:cx="27.842811"
     inkscape:cy="21.743857"
     inkscape:document-units="mm"
     inkscape:current-layer="layer1"
     showgrid="false"
     inkscape:window-width="1366"
     inkscape:window-height="705"
     inkscape:window-x="-8"
     inkscape:window-y="-8"
     inkscape:window-maximized="1"
     units="px" />
  <metadata
     id="metadata917">
    <rdf:RDF>
      <cc:Work
         rdf:about="">
        <dc:format>image/svg+xml</dc:format>
        <dc:type
           rdf:resource="http://purl.org/dc/dcmitype/StillImage" />
        <dc:title></dc:title>
      </cc:Work>
    </rdf:RDF>
  </metadata>
  <g
     inkscape:label="Layer 1"
     inkscape:groupmode="layer"
     id="layer1"
     transform="translate(0,-291.4437)">
    <g
       id="g2622">
      <path
         id="path1499"
         d="m 3.9924098,296.2352 a 0.3119062,0.30110153 0 0 0 -0.3119015,0.30105 0.3119062,0.30110153 0 0 0 0.3119015,0.30137 0.3119062,0.30110153 0 0 0 0.3119009,-0.30137 0.3119062,0.30110153 0 0 0 -0.3119009,-0.30105 z m 0,0.16884 a 0.13703642,0.13228937 0 0 1 0.1368513,0.13221 0.13703642,0.13228937 0 0 1 -0.1368513,0.13253 0.13703642,0.13228937 0 0 1 -0.1371836,-0.13253 0.13703642,0.13228937 0 0 1 0.1371836,-0.13221 z"
         style="opacity:1;fill:#ffffff;fill-opacity:1;stroke:#000000;stroke-width:0.21379152;stroke-miterlimit:4;stroke-dasharray:none;stroke-opacity:0"
         inkscape:connector-curvature="0" />
      <path
         inkscape:connector-curvature="0"
         id="ellipse1507"
         d="m 6.0010007,296.2352 a 0.3119062,0.30110153 0 0 0 -0.3119011,0.30105 0.3119062,0.30110153 0 0 0 0.3119011,0.30137 0.3119062,0.30110153 0 0 0 0.3119016,-0.30137 0.3119062,0.30110153 0 0 0 -0.3119016,-0.30105 z m 0,0.16884 a 0.13703642,0.13228937 0 0 1 0.1371836,0.13221 0.13703642,0.13228937 0 0 1 -0.1371836,0.13253 0.13703642,0.13228937 0 0 1 -0.1371831,-0.13253 0.13703642,0.13228937 0 0 1 0.1371831,-0.13221 z"
         style="opacity:1;fill:#ffffff;fill-opacity:1;stroke:#ffffff;stroke-width:0.21390152;stroke-miterlimit:4;stroke-dasharray:none;stroke-opacity:0" />
      <path
         sodipodi:nodetypes="ccc"
         inkscape:connector-curvature="0"
         id="path1480"
         d="m 6.2526079,293.20866 c 0,0 -0.33772,0.91013 -0.6589184,1.35496 -0.3211994,0.44482 -2.6713898,0.30109 -2.6713898,0.30109"
         style="fill:none;stroke:#ffffff;stroke-width:0.21379152;stroke-linecap:butt;stroke-linejoin:miter;stroke-miterlimit:4;stroke-dasharray:none;stroke-opacity:1" />
      <path
         inkscape:connector-curvature="0"
         id="path1484"
         d="m 2.2399951,293.44861 1.5333756,-0.11742 v 0"
         style="fill:none;stroke:#ffffff;stroke-width:0.21379152;stroke-linecap:butt;stroke-linejoin:miter;stroke-miterlimit:4;stroke-dasharray:none;stroke-opacity:1" />
      <path
         sodipodi:nodetypes="cscc"
         inkscape:connector-curvature="0"
         id="path1494"
         d="m 0.66228386,291.71931 c 0,0 0.89216004,-0.0194 1.00841424,0.25369 1.9464069,4.57234 1.9413309,4.16623 1.9413309,4.16623 l 3.1333729,-0.0316"
         style="fill:none;stroke:#ffffff;stroke-width:0.21379152;stroke-linecap:butt;stroke-linejoin:miter;stroke-miterlimit:4;stroke-dasharray:none;stroke-opacity:1" />
      <path
         inkscape:connector-curvature="0"
         id="ellipse1513"
         d="m 0.55369117,291.60598 a 0.31190622,0.30110153 0 0 0 -0.31192093,0.3011 0.31190622,0.30110153 0 0 0 0.31192093,0.30112 0.31190622,0.30110153 0 0 0 0.31189504,-0.30112 0.31190622,0.30110153 0 0 0 -0.31189504,-0.3011 z m 0,0.16881 a 0.13703642,0.13228937 0 0 1 0.13702784,0.13229 0.13703642,0.13228937 0 0 1 -0.13702784,0.13228 0.13703642,0.13228937 0 0 1 -0.13705594,-0.13228 0.13703642,0.13228937 0 0 1 0.13705594,-0.13229 z"
         style="opacity:1;fill:#ffffff;fill-opacity:1;stroke:#000000;stroke-width:0.21379152;stroke-miterlimit:4;stroke-dasharray:none;stroke-opacity:0" />
      <path
         style="fill:#d45500;fill-opacity:1;stroke:#000000;stroke-width:0.00016935;stroke-opacity:1"
         inkscape:connector-curvature="0"
         d="m 5.3130172,292.74396 c -6.994e-4,-1.7e-4 -0.00578,-0.007 -0.011534,-0.0139 -0.038115,-0.0503 -0.082915,-0.084 -0.1458303,-0.11003 -0.022985,-0.009 -0.081129,-0.0234 -0.1090976,-0.0263 -0.1030529,-0.0105 -0.2110854,0.0107 -0.31212,0.061 -0.01042,0.005 -0.02483,0.0123 -0.032004,0.0157 -0.016764,0.008 -0.038573,0.0212 -0.055465,0.034 -0.00723,0.006 -0.020794,0.0158 -0.030178,0.0228 -0.021886,0.0163 -0.050908,0.0404 -0.070896,0.0589 -0.097028,0.0902 -0.2125825,0.25436 -0.2925655,0.4158 -0.084217,0.16985 -0.1324355,0.33471 -0.1373033,0.47024 -4.621e-4,0.0105 -0.00122,0.0198 -0.00193,0.0209 -6.402e-4,0.001 -0.045117,0.0482 -0.099062,0.10463 -0.0538,0.0564 -0.098777,0.10346 -0.099809,0.1047 -0.00135,0.002 -0.00805,10e-4 -0.020665,-0.002 -0.022401,-0.005 -0.03622,-0.006 -0.058981,-0.004 -0.1111886,0.0116 -0.1994603,0.12154 -0.1874596,0.23329 0.00205,0.0193 0.013588,0.0578 0.021121,0.0705 0.00418,0.007 0.025248,0.0309 0.035417,0.0398 0.037558,0.0334 0.096304,0.0474 0.1476866,0.0353 0.015652,-0.004 0.016115,-0.004 0.020479,0.008 0.00527,0.0145 0.024509,0.0434 0.03678,0.0553 0.047591,0.0464 0.1143761,0.0575 0.1745405,0.0287 0.013261,-0.006 0.035449,-0.0284 0.04673,-0.0468 0.028886,-0.0462 0.028565,-0.10536 -7.048e-4,-0.15528 l -0.00839,-0.0142 0.00617,-0.007 c 0.018428,-0.0202 0.2253589,-0.23604 0.2276543,-0.23746 0.00141,-5.2e-4 0.00744,-0.002 0.013415,-0.003 0.055137,-0.004 0.1435419,-0.0257 0.2162707,-0.0523 0.204461,-0.0746 0.4296977,-0.22046 0.5803926,-0.3755 0.056731,-0.0584 0.1130288,-0.13964 0.1478787,-0.21349 0.083395,-0.17654 0.086709,-0.35909 0.00943,-0.50317 -0.00473,-0.009 -0.00927,-0.0167 -0.00996,-0.0168 z"
         id="path851" />
    </g>
  </g>
</svg>
