<?xml version="1.0" encoding="UTF-8" standalone="no"?>
<!-- Created with Inkscape (http://www.inkscape.org/) -->

<svg
   xmlns:dc="http://purl.org/dc/elements/1.1/"
   xmlns:cc="http://creativecommons.org/ns#"
   xmlns:rdf="http://www.w3.org/1999/02/22-rdf-syntax-ns#"
   xmlns:svg="http://www.w3.org/2000/svg"
   xmlns="http://www.w3.org/2000/svg"
   xmlns:sodipodi="http://sodipodi.sourceforge.net/DTD/sodipodi-0.dtd"
   xmlns:inkscape="http://www.inkscape.org/namespaces/inkscape"
   width="125"
   height="30"
   viewBox="0 0 33.072916 7.9375002"
   version="1.1"
   id="svg8"
   sodipodi:docname="logo.svg"
   inkscape:version="0.92.4 (5da689c313, 2019-01-14)">
  <defs
     id="defs2" />
  <sodipodi:namedview
     id="base"
     pagecolor="#ffffff"
     bordercolor="#666666"
     borderopacity="1.0"
     inkscape:pageopacity="0.0"
     inkscape:pageshadow="2"
     inkscape:zoom="2.8"
     inkscape:cx="161.29464"
     inkscape:cy="46.902108"
     inkscape:document-units="mm"
     inkscape:current-layer="layer1"
     showgrid="false"
     inkscape:window-width="1366"
     inkscape:window-height="705"
     inkscape:window-x="-8"
     inkscape:window-y="-8"
     inkscape:window-maximized="1"
     units="px" />
  <metadata
     id="metadata5">
    <rdf:RDF>
      <cc:Work
         rdf:about="">
        <dc:format>image/svg+xml</dc:format>
        <dc:type
           rdf:resource="http://purl.org/dc/dcmitype/StillImage" />
        <dc:title></dc:title>
      </cc:Work>
    </rdf:RDF>
  </metadata>
  <g
     inkscape:label="Layer 1"
     inkscape:groupmode="layer"
     id="layer1"
     transform="translate(0,-289.06248)">
    <g
       id="g3222"
       transform="translate(-14.088738,10.195976)">
      <g
         transform="matrix(0.30320187,0,0,0.31587487,13.695413,193.19918)"
         id="g3207">
        <path
           style="fill:#b3b3b3;stroke:none;stroke-width:0.0017987"
           inkscape:connector-curvature="0"
           d="m 35.239535,271.24971 c -0.370744,0.14727 -0.688759,0.5753 -0.998534,1.3391 -0.204322,0.50461 -0.34438,0.9837 -0.474552,1.60612 -0.324605,1.55704 -0.337789,3.00216 -0.03625,4.24897 0.248809,1.02886 0.680519,1.78676 1.191319,2.09503 0.05767,0.0334 0.08898,0.0668 0.09392,0.0962 0.0049,0.0236 0.01485,0.42215 0.02472,0.88749 0.0099,0.46338 0.02636,1.25467 0.0379,1.75732 0.01647,0.80502 0.01485,0.99155 -0.0099,1.57078 -0.06262,1.48635 -0.145004,2.95896 -0.273527,4.94796 -0.08898,1.36069 -0.100514,1.51777 -0.13182,1.91439 -0.103808,1.28805 -0.12523,1.61791 -0.149946,2.4249 -0.01977,0.63028 -0.01485,0.89927 0.02472,1.13882 0.08898,0.5537 0.360858,0.89731 0.805749,1.02101 0.177955,0.0491 0.222445,0.0491 0.375686,0.004 0.388869,-0.11585 0.606372,-0.38484 0.708533,-0.87767 0.06096,-0.28667 0.05932,-0.64599 -0.0083,-1.66896 -0.05602,-0.86982 -0.346026,-5.31317 -0.430064,-6.62674 -0.04449,-0.69507 -0.04943,-0.74219 -0.131818,-1.64932 -0.112047,-1.22128 -0.14006,-1.84174 -0.108752,-2.43471 0.0099,-0.20028 0.02636,-0.50069 0.0346,-0.66758 0.0099,-0.1669 0.01977,-0.5969 0.02472,-0.95229 0.0049,-0.35736 0.01319,-0.69311 0.01812,-0.74809 l 0.0083,-0.1021 0.126877,-0.0884 c 0.644269,-0.44963 1.123762,-1.58256 1.296775,-3.05713 0.04284,-0.35343 0.05108,-1.20558 0.01813,-1.63951 -0.151594,-1.99096 -0.76785,-3.8543 -1.456609,-4.40211 -0.110398,-0.0884 -0.331196,-0.18261 -0.418527,-0.18064 -0.02966,0 -0.102161,0.0196 -0.16148,0.0432 z"
           id="path815" />
        <path
           style="fill:#b3b3b3;stroke:none;stroke-width:0.0017999"
           inkscape:connector-curvature="0"
           d="m 3.380925,271.57102 c -0.077497,0.0924 -0.1154195,0.50495 -0.113771,1.22014 0.00162,0.65624 -0.031328,3.8451 -0.046169,4.38149 l -0.00989,0.40081 -0.054412,0.0648 c -0.037922,0.0452 -0.069251,0.0648 -0.1055263,0.0648 -0.065953,0 -0.1434506,-0.0472 -0.1698313,-0.10413 -0.016486,-0.0354 -0.021435,-0.62284 -0.021435,-2.9413 0,-3.05132 0.00162,-2.98255 -0.069253,-3.01399 -0.036274,-0.0177 -0.084091,0.0216 -0.1154195,0.0924 -0.019786,0.0471 -0.028029,0.12574 -0.031328,0.31829 -0.013189,0.62874 -0.202808,5.15758 -0.2374333,5.65271 -0.024734,0.34384 -0.019786,0.5639 0.016486,0.81735 0.084091,0.5698 0.2374351,0.94114 0.5210373,1.25944 0.1154195,0.12967 0.1747788,0.17879 0.3132818,0.25935 0.1978623,0.11592 0.1912662,0.10413 0.2209459,0.44208 0.032977,0.35366 0.018136,2.02177 -0.024732,3.08276 -0.00494,0.11789 -0.016486,0.40671 -0.024734,0.63856 -0.059359,1.52271 -0.2110526,4.42078 -0.3462585,6.641 -0.018138,0.29668 -0.044519,0.71715 -0.057709,0.93327 -0.013189,0.21613 -0.051115,0.82129 -0.084091,1.34589 -0.084091,1.34392 -0.07255,1.69365 0.065953,2.10232 0.05606,0.16308 0.1714798,0.36546 0.2786547,0.48727 0.1995108,0.22202 0.3841828,0.31044 0.6199675,0.29276 0.1731302,-0.0118 0.2885497,-0.0609 0.4402432,-0.18862 0.1335573,-0.112 0.2143515,-0.2122 0.3099846,-0.391 0.1319088,-0.24363 0.1929148,-0.48334 0.224243,-0.86843 0.034625,-0.42833 -0.018136,-1.13369 -0.3380139,-4.48956 -0.2176487,-2.28898 -0.3066858,-3.51894 -0.3561518,-4.93163 -0.019786,-0.55407 -0.00989,-3.94137 0.011549,-4.67817 l 0.011549,-0.33598 0.092336,-0.055 c 0.3446101,-0.20041 0.639754,-0.62874 0.7815542,-1.13565 0.077497,-0.27311 0.1005806,-0.46566 0.097283,-0.79967 -0.00162,-0.16701 -0.057711,-1.66418 -0.1253127,-3.3264 l -0.1220156,-3.02381 -0.046167,-0.057 c -0.062656,-0.0786 -0.1005806,-0.0727 -0.1352059,0.0157 -0.026381,0.0688 -0.028031,0.29865 -0.036274,2.94916 l -0.00825,2.87646 -0.054413,0.057 c -0.077495,0.0845 -0.1681827,0.0805 -0.2440294,-0.01 l -0.05606,-0.0668 v -0.38117 c 0,-0.54621 -0.031328,-3.66041 -0.046167,-4.58386 -0.013189,-0.76431 -0.013189,-0.78789 -0.051114,-0.88023 -0.067604,-0.16701 -0.1665342,-0.14147 -0.1978623,0.053 -0.00825,0.055 -0.019787,0.70929 -0.024732,1.45591 -0.00989,1.55022 -0.037924,3.7056 -0.052765,4.09463 -0.00989,0.25739 -0.011549,0.26721 -0.05606,0.32026 -0.067602,0.0786 -0.1764273,0.0786 -0.2506255,-0.002 l -0.054412,-0.057 -0.00989,-0.85272 c -0.00659,-0.46762 -0.019786,-1.58558 -0.02968,-2.48153 -0.00989,-0.89791 -0.026381,-1.73884 -0.034625,-1.87245 -0.00989,-0.1336 -0.016486,-0.32222 -0.016486,-0.42243 0,-0.19451 -0.021437,-0.31633 -0.062658,-0.37331 -0.031328,-0.0432 -0.046167,-0.0413 -0.08409,0.004 z"
           id="path819" />
        <path
           inkscape:connector-curvature="0"
           id="path838"
           d="m 19.571345,275.00219 a 14.907495,8.4785072 0 0 0 -14.9074942,8.47847 14.907495,8.4785072 0 0 0 14.9074942,8.47858 14.907495,8.4785072 0 0 0 14.907494,-8.47858 14.907495,8.4785072 0 0 0 -14.907494,-8.47847 z m 0,3.02691 a 9.5853314,5.451573 0 0 1 9.585364,5.45156 9.5853314,5.451573 0 0 1 -9.585364,5.45156 9.5853314,5.451573 0 0 1 -9.5852724,-5.45156 9.5853314,5.451573 0 0 1 9.5852724,-5.45156 z"
           style="opacity:1;fill:#999999;fill-opacity:1;stroke:#0dc8b5;stroke-width:0.10378462;stroke-miterlimit:4;stroke-dasharray:none;stroke-opacity:0" />
        <g
           style="fill:#d45500;fill-opacity:1;stroke:none"
           transform="matrix(9.417751e-4,0.00166211,0.00156071,-0.00100296,28.20971,283.58892)"
           id="g853">
          <path
             style="fill:#d45500;fill-opacity:1"
             inkscape:connector-curvature="0"
             d="m -4044.5463,2638.3569 c -3,-3 -50,-10 -105,-17 -369,-43 -676,-170 -1000,-413 -118,-89 -367,-344 -468,-478 -370,-495 -597,-1111.00002 -657,-1779.000025 -6,-68.999995 -15,-163.999995 -20,-210.999995 -13,-109 -13,-261 -1,-386 6,-54 15,-154 21,-223 14,-160.99998 45,-381.99998 76,-539.99998 152,-768 617,-1854 1178,-2750 590,-943 1266,-1687 1929,-2121 51,-34 95,-66 99,-73 4,-7 102,-376 218,-822 116,-445 213,-817 216,-826 4,-12 -20,-44 -73,-100 -93,-100 -140,-168 -199,-291 -285,-603 -7,-1386 589,-1661.9999 103,-48 331,-105 418,-105 48,0 232,36 308,61 283,91 533.99998,348.9999 631.99998,647.9999 30,91 32,93 104,80 89,-17 293,-6 390,21 379.000004,103 640,411 682,805 9,87 -33,267 -90,380 -141.999996,287 -439,464 -779,465 h -97 l -15,52 c -44,155 -485.99998,1864 -485.99998,1880 0,10 13,44 29,76 147.99998,295 313.99998,811 404.99998,1263 257,1270 222,2861 -89,4098.99998 -117,466 -349.99998,999 -611.99998,1400.00002 -626,959 -1529,1527 -2488,1567 -60,3 -112,3 -115,0 z"
             id="path851" />
        </g>
        <path
           id="path817"
           d="m 16.915215,274.15489 c -0.0299,0.0706 -0.02681,0.23941 0.0065,0.36584 0.183069,0.69542 1.0495,1.9785 3.195336,4.72729 1.793194,2.29707 2.712792,3.33819 3.312132,3.7456 0.155302,0.10675 0.374235,0.36765 0.618142,0.74155 0.107049,0.16507 0.296029,0.4239 0.47115,0.64823 0.519367,0.6653 2.217536,2.96076 2.966718,4.00984 0.0681,0.0956 0.235389,0.32948 0.370483,0.51649 0.904573,1.2649 1.729534,2.44178 2.414066,3.44156 0.437593,0.64156 0.527463,0.75948 0.668396,0.88416 0.267389,0.23358 0.532592,0.27162 0.867961,0.1202 0.152392,-0.0674 0.36413,-0.26263 0.46206,-0.4221 0.16688,-0.27507 0.222113,-0.57863 0.152036,-0.8388 -0.03449,-0.12797 -0.0475,-0.15023 -0.179168,-0.32728 -0.100487,-0.13709 -0.193306,-0.24201 -0.327782,-0.3724 -0.197405,-0.19421 -0.313181,-0.32296 -1.007042,-1.11961 -0.432494,-0.49536 -0.972192,-1.11408 -1.53606,-1.75817 -0.656672,-0.74902 -1.787556,-2.0552 -2.437515,-2.81796 -0.650047,-0.76008 -0.875069,-1.02598 -1.757901,-2.08146 -0.09983,-0.11949 -0.360742,-0.43417 -0.57949,-0.70042 l -0.397824,-0.48449 -0.07185,-0.28198 c -0.181506,-0.70459 -0.632203,-1.5892 -1.335748,-2.61893 -0.705942,-1.0328 -1.0011,-1.4081 -1.930735,-2.44813 -1.486761,-1.66151 -2.974486,-2.922 -3.601894,-3.0525 -0.188795,-0.0407 -0.288862,-0.004 -0.341937,0.12345 z"
           inkscape:connector-curvature="0"
           style="fill:#808080;stroke:none;stroke-width:0.00183045" />
      </g>
      <text
         transform="scale(0.94371477,1.0596422)"
         id="text3211"
         y="268.46185"
         x="28.006495"
         style="font-style:italic;font-variant:normal;font-weight:normal;font-stretch:normal;font-size:4.47851372px;line-height:1.25;font-family:Cambria;-inkscape-font-specification:'Cambria, Italic';font-variant-ligatures:normal;font-variant-caps:normal;font-variant-numeric:normal;font-feature-settings:normal;text-align:start;letter-spacing:0px;word-spacing:0px;writing-mode:lr-tb;text-anchor:start;fill:#ffffff;fill-opacity:1;stroke:#000000;stroke-width:0.11195824"
         xml:space="preserve"><tspan
           style="font-style:italic;font-variant:normal;font-weight:normal;font-stretch:normal;font-size:4.47851372px;font-family:Cambria;-inkscape-font-specification:'Cambria, Italic';font-variant-ligatures:normal;font-variant-caps:normal;font-variant-numeric:normal;font-feature-settings:normal;text-align:start;writing-mode:lr-tb;text-anchor:start;fill:#ffffff;stroke:#000000;stroke-width:0.11195824"
           y="268.46185"
           x="28.006495"
           id="tspan3209"
           sodipodi:role="line">Preshs Dine</tspan></text>
    </g>
  </g>
</svg>
